inDegrees=no
num_controls=7
num_derivatives=13
num_iterations=91
num_multipliers=7
num_parameters=0
num_slacks=7
num_states=26
objective=5.841062
objective_accelerations=0.306388
objective_balance=0.055878
objective_effort=0.387451
objective_height=5.003560
objective_ligament=0.087785
solver_duration=785.696567
status=Solve_Succeeded
success=true
DataType=double
version=3
OpenSimVersion=4.4-2022-07-23-0e9fedc
endheader
time	/jointset/ground_pelvis/pelvis_tilt/value	/jointset/ground_pelvis/pelvis_tx/value	/jointset/ground_pelvis/pelvis_ty/value	/jointset/hip_r/hip_flexion_r/value	/jointset/hip_r/hip_adduction_r/value	/jointset/hip_r/hip_rotation_r/value	/jointset/back/lumbar_extension/value	/jointset/patellofemoral_r/patellar_flexion_r/value	/jointset/knee_r/knee_flexion_r/value	/jointset/knee_r/knee_adduction_r/value	/jointset/knee_r/knee_rotation_r/value	/jointset/ankle_r/ankle_angle_r/value	/jointset/subtalar_r/subtalar_angle_r/value	/jointset/ground_pelvis/pelvis_tilt/speed	/jointset/ground_pelvis/pelvis_tx/speed	/jointset/ground_pelvis/pelvis_ty/speed	/jointset/hip_r/hip_flexion_r/speed	/jointset/hip_r/hip_adduction_r/speed	/jointset/hip_r/hip_rotation_r/speed	/jointset/back/lumbar_extension/speed	/jointset/patellofemoral_r/patellar_flexion_r/speed	/jointset/knee_r/knee_flexion_r/speed	/jointset/knee_r/knee_adduction_r/speed	/jointset/knee_r/knee_rotation_r/speed	/jointset/ankle_r/ankle_angle_r/speed	/jointset/subtalar_r/subtalar_angle_r/speed	/forceset/tau_hip_flexion_r	/forceset/tau_hip_adduction_r	/forceset/tau_hip_rotation_r	/forceset/tau_knee_flexion_r	/forceset/tau_ankle_angle_r	/forceset/tau_subtalar_angle_r	/forceset/tau_lumbar_extension	lambda_cid13_p0	lambda_cid14_p0	lambda_cid14_p1	lambda_cid14_p2	lambda_cid14_p3	lambda_cid14_p4	lambda_cid14_p5	/jointset/ground_pelvis/pelvis_tilt/accel	/jointset/ground_pelvis/pelvis_tx/accel	/jointset/ground_pelvis/pelvis_ty/accel	/jointset/hip_r/hip_flexion_r/accel	/jointset/hip_r/hip_adduction_r/accel	/jointset/hip_r/hip_rotation_r/accel	/jointset/back/lumbar_extension/accel	/jointset/patellofemoral_r/patellar_flexion_r/accel	/jointset/knee_r/knee_flexion_r/accel	/jointset/knee_r/knee_adduction_r/accel	/jointset/knee_r/knee_rotation_r/accel	/jointset/ankle_r/ankle_angle_r/accel	/jointset/subtalar_r/subtalar_angle_r/accel	gamma_cid13_p0	gamma_cid14_p0	gamma_cid14_p1	gamma_cid14_p2	gamma_cid14_p3	gamma_cid14_p4	gamma_cid14_p5
0.5	-0.05973434188333721	0.07562521998227728	0.882551077872761	0.5750644572751723	-0.2264880731254246	-0.1513099761524947	-0.3030745986660607	0.6112495236992757	0.611249523699084	0.04449986402610477	0.17446908359592	0.2654972632322444	0.06240224886735468	-0.1593200959182172	-0.04828604910747618	-0.2506780683570002	1.100648248880391	-0.00459776701821272	0.2147042108947213	-0.606541422859935	1.464837211401373	1.464837211401346	-0.2778153190676562	-0.0002471034609090002	0.60925297391037	0.1728952295908393	-0.04808869532868686	-0.005231809773561164	0.005158875936459449	-0.3158832133511709	0.03381952369926917	-0.0174567924296265	0.1154362393563507	-36.04461665067499	-31.88975945996931	-9.458548066883699	-2.265912325928173	8.216010954650635	-674.2397302222613	50.88633657819006	-0.009463874068251303	0.1150265518499488	-0.2907875522710509	-0.5691931126584117	-0.07960556370554168	-0.5092724109763989	1.003576419188698	-0.9310785369354805	-0.9310785369354247	0.3613534625091644	0.003242175623681382	-0.4795419908308831	-0.09156054063431825	-9.205421346315101e-08	-1.099883943832473e-07	5.986787590727439e-07	-1.02422386491378e-06	1.843571215743526e-10	-1.340144160343657e-07	9.302033317870865e-07
0.51	-0.06132799670487484	0.07514823350508874	0.8800302735039189	0.5860409364684492	-0.2265386569078338	-0.1491877889677985	-0.3090887294333097	0.625849135958107	0.6258491359580367	0.04174163658741763	0.174466935312154	0.271564776112646	0.06412542669121753	-0.1593943191152578	-0.04710035242874619	-0.2534255632730991	1.094487815327262	-0.00551392831300817	0.20971211980718	-0.5961934184155621	1.454864040727595	1.454864040727565	-0.2738220035722393	-0.0001730593869308624	0.6041668046209151	0.1717179588530228	-0.05252274114250486	-0.003650939963528617	0.005717840287394175	-0.3182789786511445	0.02925373999544231	-0.01660249125764667	0.1196483486916642	-35.32947093395828	-33.43952503384262	-9.459784062083637	-2.150455701246507	8.730225016704948	-676.6849555937223	50.81065288319031	-0.00392846158960092	0.1219763625361544	-0.2581707531408675	-0.663446336794103	-0.09699336495420854	-0.4974978954852156	1.064109284272345	-1.063598758036596	-1.063598758037235	0.4195570711114086	0.01073821805422749	-0.5355832646259144	-0.1342013441878983	-8.45945108767583e-08	-1.06643495615937e-07	5.184605567175285e-07	-9.957410310290572e-07	6.533946263602416e-09	-1.296315745599763e-07	8.64965139000478e-07
0.52	-0.06292189914222807	0.07468343102201569	0.8774837061275509	0.5969510157542159	-0.2265982766937182	-0.1471161867815335	-0.3149966407906604	0.6403423840251321	0.6403423840252209	0.03902358959930857	0.1744657780079838	0.2775789415268219	0.06583615360693608	-0.1593696190749646	-0.04584925028437916	-0.2558306698633659	1.087368267367986	-0.006404967711405753	0.2045872112059759	-0.5852975408827151	1.443564373036345	1.443564373036311	-0.2697792289547501	-4.890752216708523e-05	0.598583480666527	0.1704050479619182	-0.05695678695567742	-0.002070070153240117	0.006276804637345395	-0.320674743950921	0.02468795629172969	-0.01574819008527224	0.1238604580274686	-34.59328611909724	-34.9972490665093	-9.458414586169011	-2.039982895325527	9.242223691403785	-679.2605634011189	50.80094918492258	0.0103207734001196	0.1281076449760512	-0.2223098871046362	-0.7610159938880466	-0.07458118442585476	-0.5358359137090175	1.113151036884093	-1.196377940429924	-1.196377940429938	0.3712452869231972	0.01326373378072808	-0.5789729238189978	-0.1186885712921489	-7.852519338473472e-08	-1.016868757377583e-07	4.656984856487968e-07	-9.540731322564549e-07	9.076600107864822e-09	-1.227003140300842e-07	8.0691771890835e-07
0.53	-0.06451500471974751	0.07423142902034616	0.8749148412632195	0.607785111880618	-0.2266666628537296	-0.1450961620909565	-0.320792910926212	0.6547160623463461	0.6547160623462694	0.03634634649478536	0.1744658775289571	0.2835347971684829	0.0675330638027628	-0.1592301302716592	-0.04454381505655563	-0.25788111411543	1.079290247658528	-0.007271307860775727	0.1994276444812499	-0.5738693218940194	1.430954309066517	1.430954309066553	-0.2656369564079405	6.058671722036009e-05	0.5925033318139641	0.1689461247136054	-0.06148863816776845	-0.0004206252945148278	0.006869747732568059	-0.3228264898759104	0.01981331908597943	-0.01501426118452752	0.1281400668524509	-33.83911309693673	-36.66512099259401	-9.537624669101957	-1.906364750062604	9.873657344758032	-681.8684220555691	50.64452127354081	0.01895934545857539	0.1328637895078226	-0.1872571732404082	-0.8553122221932469	-0.09264382187678416	-0.5046666177631125	1.170731980932537	-1.325852877530869	-1.325852877520468	0.4405883239471446	0.008400991905701677	-0.6351904047090875	-0.1641655715802192	-6.933467821284799e-08	-8.373929620159304e-08	4.438345976479442e-07	-8.06559987256895e-07	6.688001206495995e-11	-9.808156085518313e-08	7.095589228866044e-07
0.54	-0.0661060761269443	0.07379270183651754	0.8723273028605786	0.6185336043574169	-0.2267437090936241	-0.1431274629807671	-0.3264722839416519	0.6689571335773699	0.66895713357723	0.03371150013275703	0.1744667937369407	0.289427320413865	0.06921445049210743	-0.1589627850017921	-0.04319428671619552	-0.2595653775265331	1.070247537440365	-0.008136983677580313	0.1943220951201783	-0.5619181168624775	1.417042955005859	1.417042955005966	-0.2612998804456786	0.0001144298721221113	0.585917001412025	0.1673003466661309	-0.06602048937927946	0.001228819564453127	0.00746269082768289	-0.3249782358007522	0.01493868188032293	-0.01428033228342557	0.1324196756778788	-33.06995371074346	-38.34098948808925	-9.614947903271338	-1.776802385261666	10.50468841238574	-684.6032952516708	50.54876804819382	0.03589206671402322	0.1369262674821007	-0.1490737189124785	-0.9539540956288839	-0.07444831791256244	-0.5250324409780688	1.21774824545385	-1.456635958595513	-1.456635958595533	0.4102059700132405	0.002133516883425407	-0.6802092336956996	-0.1560595311246825	-5.669092305472964e-08	-5.141874002254897e-08	4.561559334668731e-07	-5.419414634530402e-07	-2.172418997486777e-08	-5.389366688154836e-08	5.687066896661323e-07
